<svg  width="225px" height="81px" xmlns="http://www.w3.org/2000/svg" viewBox="0 0 224.52 79.83"><defs><style>.cls-1{fill:#3dae2b;}.cls-2,.cls-3{fill:#fff;}.cls-2{fill-rule:evenodd;}</style></defs><g id="Layer_2" data-name="Layer 2"><g id="Layer_1-2" data-name="Layer 1"><path class="cls-1" d="M100.31,13.59a19.91,19.91,0,0,0,.59-6.06,4.13,4.13,0,0,0-3.64-3.9c-.07,0-6.65,0-9.28,1.65C86.31,2.5,79.21,0,78,0s-8,4.91-9.31,8.07c-2.33-.6-7,.26-9.32,1A5,5,0,0,0,56,13.84a16.32,16.32,0,0,0,1.23,5.7Q28.29,24.52,0,32.09c0,9.68,0,20.59,0,31.2A16.35,16.35,0,0,0,19.74,79.45,644.79,644.79,0,0,1,204.37,66.26,16.36,16.36,0,0,0,221.72,51c.93-12.83,1.89-26.45,2.8-38.34A652,652,0,0,0,100.31,13.59Z"/><path class="cls-2" d="M68.58,24.14c2.89-.46,5.68-1.08,9.81-1.65,4.28-.6,8.57-.92,11.81-1.19A4.35,4.35,0,0,0,93.92,19c1.48-3.58,3.15-6.93,2.88-11.52-7.93-.34-9.79,2.13-8.1,7.61a3.41,3.41,0,0,1-.32,2.43c-1.14,1.6-6.42,1.88-5.54-1.64.49-2,1.89-3.16,2.22-5.05.58-3.36-2.24-6.5-7-7.08-4.62,2-7,5.82-6,8.91.57,1.75,2.11,2.53,2.85,4.31,1.34,3.2-3.94,4.33-5.29,3.09A3,3,0,0,1,69,17.8c1-5.78-1.16-7.65-9.12-5,.22,5,2.59,7.27,4.42,10.32C64.61,23.68,65.84,24.58,68.58,24.14Z"/><path class="cls-3" d="M207.81,60.92c-24.23-.51-48.4-1.63-72.63-.75a745.68,745.68,0,0,0-82.55,8C40.56,70,28.53,72,16.5,74c23.92-5.17,48-9.58,72.41-12.43a567.83,567.83,0,0,1,80.7-3.26C182.39,58.59,195.07,60,207.81,60.92Z"/><path class="cls-3" d="M61.86,25c-.32-.54-.66-1-1-1.56-17.3,3.29-34.5,7.29-51.6,11.73,12.7-2.53,25.4-5,38.14-7.35q7.34-1.33,14.69-2.53A1.38,1.38,0,0,1,61.86,25Z"/><path class="cls-3" d="M26.27,64.18a2.49,2.49,0,0,0-1.17-1.85,3.45,3.45,0,0,0-2.6-.12c-1.77.41-3.55.84-5.31,1.27l-.63-16.81c0-.16,0-.31,0-.47s0-.32-.06-.47a3.07,3.07,0,0,0-1.06-1.86,2.66,2.66,0,0,0-2.48-.26c-.23.06-.5.15-.79.25s-.59.23-.86.36l-.27.13,1,25.24.55-.14C17,68.34,21.5,67.26,26,66.26l.28-.06.07-.27a3.06,3.06,0,0,0,.06-.81A5.64,5.64,0,0,0,26.27,64.18Z"/><path class="cls-3" d="M39.85,39.73a3.22,3.22,0,0,0-1.55-2A3.56,3.56,0,0,0,36,37.61a5,5,0,0,0-1.26.51,8.83,8.83,0,0,0-1,.69l-.12.1,0,.15q-3.14,13-6.27,26l-.17.72.72-.16c1.54-.35,3.09-.69,4.63-1l.29-.06,1.14-5.51c2.11-.46,4.24-.91,6.35-1.34l1.58,5,.41-.08,4.67-.89.52-.1-.17-.51C44.82,54,42.32,46.84,39.85,39.73ZM38.77,53.09l-3.83.83,1.65-8Q37.67,49.52,38.77,53.09Z"/><path class="cls-3" d="M68.14,48.31a6.19,6.19,0,0,0-1.21-1.83,9.48,9.48,0,0,0-2-1.56A20,20,0,0,0,62.1,43.5a14,14,0,0,1-2.6-1.36,2.6,2.6,0,0,1-1.06-1.85,2,2,0,0,1,.43-1.56,2.62,2.62,0,0,1,1.72-.95,4.63,4.63,0,0,1,2.54.16,6.84,6.84,0,0,1,2.2,1.41l.27.24.31-.2a4.64,4.64,0,0,0,1.44-1.71,3.83,3.83,0,0,0,.37-2.24,2.86,2.86,0,0,0-1.37-2.06,10.5,10.5,0,0,0-1-.5A7.43,7.43,0,0,0,64,32.43a10.56,10.56,0,0,0-1.78-.19,10,10,0,0,0-2.12.18,10.85,10.85,0,0,0-3.27,1.15,8.44,8.44,0,0,0-2.47,2.06,7.74,7.74,0,0,0-1.43,2.78,8.11,8.11,0,0,0-.15,3.35,7.58,7.58,0,0,0,2,4.28,11.91,11.91,0,0,0,4.17,2.51,17.64,17.64,0,0,1,1.88.84,5.84,5.84,0,0,1,1.16.78,2.71,2.71,0,0,1,.63.77,3.35,3.35,0,0,1,.3,1,3.06,3.06,0,0,1,0,1,2.51,2.51,0,0,1-.38.93,3,3,0,0,1-.81.76,3.29,3.29,0,0,1-1.27.45,6.36,6.36,0,0,1-3-.13,8.86,8.86,0,0,1-2.62-1.41l-.32-.25-.29.29A5.82,5.82,0,0,0,53,55.21a3.53,3.53,0,0,0-.3,2.06,2.57,2.57,0,0,0,.58,1.35,4,4,0,0,0,1.19.9,7.75,7.75,0,0,0,2.73.78,8.92,8.92,0,0,0,1.2.07,17,17,0,0,0,2.76-.25,11.38,11.38,0,0,0,3.4-1.06,7.82,7.82,0,0,0,2.55-2,7.37,7.37,0,0,0,1.44-2.91,9.48,9.48,0,0,0,.13-3.67A8.57,8.57,0,0,0,68.14,48.31Z"/><path class="cls-3" d="M89.08,34.8a10.45,10.45,0,0,0-2-3.31A7.84,7.84,0,0,0,84,29.42a8.39,8.39,0,0,0-4.24-.32,10.31,10.31,0,0,0-5.51,2.49,13.82,13.82,0,0,0-3.38,4.68,19,19,0,0,0-1.52,5.85,25.49,25.49,0,0,0,.1,6.06,16.82,16.82,0,0,0,1,3.87,9.52,9.52,0,0,0,2,3.13,8.23,8.23,0,0,0,3.08,2,8.07,8.07,0,0,0,2.76.45,10.36,10.36,0,0,0,1.44-.1,10,10,0,0,0,5.38-2.22,13,13,0,0,0,3.36-4.45A18.82,18.82,0,0,0,90.08,45a26.23,26.23,0,0,0,0-6.2A17.05,17.05,0,0,0,89.08,34.8Zm-4.93,9.62a15.19,15.19,0,0,1-.93,4.12,7.62,7.62,0,0,1-1.66,2.67,3.48,3.48,0,0,1-2.06,1.07,2.88,2.88,0,0,1-2.8-.91,6.75,6.75,0,0,1-1.36-3.51,25.63,25.63,0,0,1-.22-5.36A15,15,0,0,1,76,38.35a7.22,7.22,0,0,1,1.68-2.73,4.09,4.09,0,0,1,2.27-1.17,4,4,0,0,1,.59,0,2.6,2.6,0,0,1,2.15,1A7.09,7.09,0,0,1,84,39.05,24,24,0,0,1,84.15,44.42Z"/><path class="cls-3" d="M107.43,41.46a7.09,7.09,0,0,0-2.11-1.7,6.71,6.71,0,0,0,2.27-2.86,8.48,8.48,0,0,0,.53-4,8.38,8.38,0,0,0-.68-2.55,5.73,5.73,0,0,0-1.68-2.15A7.13,7.13,0,0,0,102.94,27a11.73,11.73,0,0,0-4-.13c-1,.12-2.06.28-3,.48s-2,.45-3.2.72l-.34.09-.85,27.36.52,0c2.21-.23,4.45-.45,6.66-.65A22.32,22.32,0,0,0,103,54a10,10,0,0,0,3.41-1.73,6.72,6.72,0,0,0,2.1-2.92,9.2,9.2,0,0,0,.41-4.2A6.62,6.62,0,0,0,107.43,41.46ZM97.15,50.13l.22-6.92,2.3-.24a3,3,0,0,1,2.32.53,3.24,3.24,0,0,1,1,2.17,3.47,3.47,0,0,1-.82,3A6.11,6.11,0,0,1,98.38,50C98,50.05,97.56,50.08,97.15,50.13Zm4.4-18a2.49,2.49,0,0,1,.91,1.82h0a4.15,4.15,0,0,1-.61,3.09,3.19,3.19,0,0,1-2.27,1.18l-2,.21.25-6.51.52-.08c.45-.06.82-.12,1.11-.14A2.9,2.9,0,0,1,101.55,32.09Z"/><path class="cls-3" d="M126.9,24.87l0-.47-.46,0c-3.9.26-8.11.66-12.17,1l-3.19.3-1.33,28.08.51,0c4.91-.34,9.88-.62,14.78-.84h.31l.1-.29a3.11,3.11,0,0,0,.15-.85,7.06,7.06,0,0,0,0-1,3.15,3.15,0,0,0-1-2.23,3.88,3.88,0,0,0-2.76-.64c-2,.1-4,.22-6,.34l.32-6.49c2.25-.16,4.52-.3,6.75-.43l.41,0L123.6,36l-.52,0c-2.21.13-4.45.28-6.68.45l.29-5.87,2.63-.24c1.34-.13,2.73-.27,3.93-.35a5.7,5.7,0,0,0,1.8-.37,2.81,2.81,0,0,0,1.24-1,3.62,3.62,0,0,0,.57-1.61A11.91,11.91,0,0,0,126.9,24.87Z"/><path class="cls-3" d="M144,37.72a11.13,11.13,0,0,0,1.21-6.45,9.35,9.35,0,0,0-.7-3.1,6.91,6.91,0,0,0-1.85-2.53,8,8,0,0,0-3.06-1.58,13.09,13.09,0,0,0-4.26-.4c-1,.05-2,.14-3.08.27s-2.16.31-3.28.52l-.34.07-2.07,28.57.52,0,4.84-.17.41,0,.8-10.53,1.12-.05q1.65,3.89,3.29,7.78A6.68,6.68,0,0,0,139,52.41a3.36,3.36,0,0,0,2.32.72h.09a5.5,5.5,0,0,0,1.62-.25,6,6,0,0,0,1.5-.72l.32-.21-.15-.36q-2.26-5.28-4.54-10.51A8.2,8.2,0,0,0,144,37.72Zm-5.26-3.37a3.44,3.44,0,0,1-.83,1.51,3.4,3.4,0,0,1-1.42.85,7.53,7.53,0,0,1-2,.33l-1,0,.61-8,.31,0,.93-.07a3.56,3.56,0,0,1,2.46.74,2.83,2.83,0,0,1,1.09,2.18h0A7.46,7.46,0,0,1,138.75,34.35Z"/><path class="cls-3" d="M151.45,32.72q-3,9.72-6,19.42l-.19.6h.63c1.72,0,3.44,0,5.16,0h.36L153,46.86c2.37,0,4.77,0,7.14,0l1.45,5.94H162l5.19.14.62,0-.16-.6q-3.44-12.88-6.88-25.68a4.4,4.4,0,0,0-1.51-2.49,4.13,4.13,0,0,0-2.47-.71,4.45,4.45,0,0,0-1.43.26,7.44,7.44,0,0,0-1.16.52l-.17.09-.05.18-2.5,8.14m7.39,8.79h-4.4l2.37-8.76Q157.83,37.12,158.84,41.51Z"/><path class="cls-3" d="M190.58,28.18a5.61,5.61,0,0,0,0-.58,4.7,4.7,0,0,0-.77-2.53,3.22,3.22,0,0,0-2.53-1.31,7.72,7.72,0,0,0-.85,0,7.22,7.22,0,0,0-.92.06l-.36.05,0,.37q-.87,8.94-1.73,17.6c-2.06-5.18-4.17-10.47-6.29-15.75a8.34,8.34,0,0,0-1.41-2.34,3.59,3.59,0,0,0-2.51-1.07,7,7,0,0,0-1.39,0l-1,.15-.37,0,0,.37q-1,15-1.95,29.28l0,.48h.48c1.61.05,3.22.12,4.82.18l.45,0,1.29-17.48c2.52,5.94,5,11.87,7.43,17.66l.11.27.29,0,4.19.26.44,0,0-.44q1.28-12.14,2.62-24.81A5.46,5.46,0,0,0,190.58,28.18Z"/><path class="cls-3" d="M211.44,55.44Q209,41.82,206.57,28.28a4.54,4.54,0,0,0-1.33-2.69,4.18,4.18,0,0,0-2.48-.94,4.23,4.23,0,0,0-1.49.15,7.16,7.16,0,0,0-1.24.44l-.16.08-.07.16q-5.53,14-11.09,27.88l-.24.59.63,0c1.77.12,3.55.26,5.32.4l.35,0,2.13-6c2.44.2,4.92.41,7.37.64l1,6.27.35,0c1.78.18,3.56.37,5.33.57l.62.07Zm-8.06-12-4.56-.38,3.21-9Z"/><path class="cls-3" d="M213.38,26.49a3,3,0,0,1-.17,1,2.41,2.41,0,0,1-.51.83,2.32,2.32,0,0,1-.8.58,2.46,2.46,0,0,1-1,.21,2.59,2.59,0,0,1-1.07-.21,2.16,2.16,0,0,1-.78-.58,2.33,2.33,0,0,1-.47-.83,3,3,0,0,1-.16-1,2.77,2.77,0,0,1,.18-1,2.59,2.59,0,0,1,.5-.83,2.39,2.39,0,0,1,.79-.57,2.61,2.61,0,0,1,2,0,2.29,2.29,0,0,1,.79.57,2.62,2.62,0,0,1,.51.83A3,3,0,0,1,213.38,26.49Zm-.44,0a2.33,2.33,0,0,0-.15-.82,2.38,2.38,0,0,0-.41-.69,2.07,2.07,0,0,0-.65-.48,2.07,2.07,0,0,0-1.69,0,2.07,2.07,0,0,0-.65.48,2,2,0,0,0-.41.69,2.33,2.33,0,0,0-.15.82,2.57,2.57,0,0,0,.14.82,2.29,2.29,0,0,0,.39.7,1.83,1.83,0,0,0,.64.48,2,2,0,0,0,.87.18,2,2,0,0,0,1.5-.66,2.37,2.37,0,0,0,.42-.7A2.33,2.33,0,0,0,212.94,26.49Zm-.66,1.3a1.57,1.57,0,0,1-.28.12l-.23,0a.72.72,0,0,1-.29-.06.62.62,0,0,1-.24-.22l-.5-.79h-.11v1h-.8v-3H210l.25,0h.49a1.49,1.49,0,0,1,1,.27.87.87,0,0,1,.32.69.91.91,0,0,1-.16.54,1.82,1.82,0,0,1-.34.34Zm-1.09-1.92a.34.34,0,0,0-.11-.29.48.48,0,0,0-.31-.1h-.14v.8h.17a.36.36,0,0,0,.31-.12A.56.56,0,0,0,211.19,25.87Z"/><path class="cls-3" d="M173.32,14.88a536,536,0,0,0-76,3.15c-.33.8-.67,1.6-1,2.41l-.16.29c13.47-1.55,27-2.7,40.54-3.33,25.78-1.19,51.5.07,77.3.59C200.43,16.93,186.92,15.23,173.32,14.88Z"/></g></g></svg>